<?xml version="1.0" encoding="utf-8"?>
<!-- Generator: Adobe Illustrator 22.0.1, SVG Export Plug-In . SVG Version: 6.00 Build 0)  -->
<svg version="1.1" xmlns="http://www.w3.org/2000/svg" xmlns:xlink="http://www.w3.org/1999/xlink" x="0px" y="0px" width="692.1px"
	 height="316.9px" viewBox="0 0 692.1 316.9" style="enable-background:new 0 0 692.1 316.9;" xml:space="preserve">
<style type="text/css">
	.st0{fill:#2F3E5F;}
	.st1{fill:#869AB7;}
</style>
<g id="Footer">
</g>
<g id="Header">
	<g id="Logo_2_">
		<g id="Text_1_">
			<g>
				<path class="st0" d="M0.4,294.6h4.4v21.8H0.4V294.6z"/>
				<path class="st0" d="M9.5,294.6h7l5.2,16.6h0.1l5.2-16.6h7v21.8h-4.2v-18h-0.1l-5.9,18h-4.2l-5.9-18l-0.1,0.1v18H9.5V294.6z"/>
				<path class="st0" d="M45.3,294.6h4.9l8.6,21.8H54l-1.9-5h-8.9l-1.9,5h-4.5L45.3,294.6z M47.7,299L47.7,299l-3.2,9h6.4L47.7,299z
					"/>
				<path class="st0" d="M61.6,294.6h7l5.2,16.6h0.1l5.2-16.6h7v21.8h-4.2v-18h-0.1l-5.9,18h-4.2l-5.9-18l-0.1,0.1v18h-4.2V294.6z"
					/>
				<path class="st0" d="M106.1,294.6h4.9l8.6,21.8h-4.8l-1.9-5H104l-1.9,5h-4.5L106.1,294.6z M108.5,299L108.5,299l-3.2,9h6.4
					L108.5,299z"/>
				<path class="st0" d="M122.4,294.6h7.6c1,0,1.9,0.1,2.7,0.3c0.9,0.2,1.6,0.5,2.2,0.9c0.6,0.4,1.1,1,1.5,1.7
					c0.4,0.7,0.6,1.6,0.6,2.7c0,0.7-0.1,1.3-0.3,1.8c-0.2,0.6-0.5,1-0.9,1.4c-0.4,0.4-0.8,0.8-1.4,1c-0.5,0.3-1.1,0.5-1.8,0.6v0.1
					c0.7,0.1,1.3,0.2,2,0.5c0.6,0.2,1.1,0.6,1.6,1c0.5,0.4,0.8,0.9,1.1,1.5c0.3,0.6,0.4,1.3,0.4,2c0,1.2-0.2,2.1-0.6,2.9
					c-0.4,0.8-1,1.5-1.7,2s-1.5,0.9-2.4,1.1s-1.9,0.3-3,0.3h-7.6V294.6z M126.8,303.5h1.9c0.4,0,0.9,0,1.4-0.1
					c0.5-0.1,0.9-0.2,1.3-0.4s0.7-0.5,1-0.8c0.2-0.3,0.4-0.8,0.4-1.3c0-0.7-0.1-1.2-0.4-1.6c-0.2-0.4-0.6-0.6-1-0.8
					c-0.4-0.2-0.8-0.3-1.4-0.3c-0.5,0-1,0-1.5,0h-1.7V303.5z M126.8,313h2.1c0.5,0,1,0,1.6-0.1c0.5-0.1,1-0.2,1.5-0.4
					c0.4-0.2,0.8-0.5,1.1-0.9s0.4-0.9,0.4-1.5c0-0.6-0.1-1.1-0.3-1.6c-0.2-0.5-0.6-0.8-1.1-1.1c-0.2-0.1-0.5-0.2-0.7-0.3
					c-0.2-0.1-0.5-0.2-0.7-0.2c-0.3,0-0.5,0-0.8-0.1c-0.3,0-0.6,0-0.8,0h-2.1V313z"/>
				<path class="st0" d="M141.5,294.6h6.3c0.7,0,1.4,0,2.2,0.1c0.7,0.1,1.5,0.2,2.2,0.4c0.7,0.2,1.5,0.4,2.1,0.7
					c0.7,0.3,1.3,0.6,2,1c0.7,0.5,1.3,1.1,1.8,1.7c0.5,0.7,0.9,1.4,1.2,2.1c0.3,0.8,0.5,1.6,0.6,2.4c0.1,0.8,0.2,1.7,0.2,2.5
					c0,2-0.3,3.7-0.9,5.1c-0.6,1.4-1.5,2.5-2.6,3.4c-1.1,0.9-2.4,1.5-4,1.9c-1.5,0.4-3.3,0.6-5.1,0.6h-6V294.6z M145.9,313h2.4
					c1.1,0,2.1-0.2,2.9-0.6c0.9-0.4,1.6-0.9,2.3-1.6c0.6-0.7,1.1-1.5,1.5-2.4c0.3-0.9,0.5-1.9,0.5-3c0-1.1-0.2-2-0.5-3
					c-0.3-0.9-0.8-1.7-1.5-2.4c-0.6-0.7-1.4-1.2-2.3-1.6c-0.9-0.4-1.9-0.6-2.9-0.6h-2.4V313z"/>
				<path class="st0" d="M164,294.6h4.4v12.6c0,0.8,0.1,1.5,0.2,2.3c0.1,0.7,0.4,1.4,0.7,2c0.3,0.6,0.8,1,1.4,1.4
					c0.6,0.4,1.3,0.5,2.2,0.5c0.9,0,1.7-0.2,2.3-0.5c0.6-0.3,1.1-0.8,1.4-1.4c0.3-0.6,0.6-1.2,0.7-2c0.1-0.7,0.2-1.5,0.2-2.3v-12.6
					h4.4v14c0,1.5-0.2,2.7-0.6,3.8c-0.4,1-1,1.9-1.8,2.6c-0.8,0.7-1.7,1.2-2.8,1.5c-1.1,0.3-2.4,0.5-3.7,0.5c-1.4,0-2.6-0.2-3.7-0.5
					c-1.1-0.3-2-0.8-2.8-1.5c-0.8-0.7-1.3-1.5-1.8-2.6s-0.6-2.3-0.6-3.8V294.6z"/>
				<path class="st0" d="M186.7,294.6h4.4V313h8.5v3.4h-12.9V294.6z"/>
				<path class="st0" d="M202,294.6h6c0.7,0,1.4,0,2.2,0c0.7,0,1.4,0.1,2.1,0.2c0.7,0.1,1.3,0.3,1.9,0.6s1.1,0.6,1.5,1s0.8,1,1,1.6
					c0.2,0.7,0.4,1.5,0.4,2.4c0,0.7-0.1,1.3-0.3,1.9c-0.2,0.6-0.5,1.1-0.9,1.5c-0.4,0.4-0.9,0.8-1.4,1.1c-0.6,0.3-1.2,0.5-1.8,0.6
					v0.1c0.3,0,0.6,0.1,0.8,0.3c0.2,0.1,0.5,0.3,0.6,0.5s0.4,0.4,0.5,0.7c0.1,0.3,0.3,0.5,0.4,0.8l3.5,8.5h-4.9l-2.6-6.8
					c-0.2-0.4-0.3-0.8-0.5-1.1c-0.2-0.3-0.3-0.5-0.6-0.7c-0.2-0.2-0.5-0.3-0.8-0.4c-0.3-0.1-0.7-0.1-1.2-0.1h-1.4v9.1H202V294.6z
					 M206.4,304h1.4c0.3,0,0.7,0,1.1,0c0.4,0,0.8-0.1,1.2-0.2c0.4-0.1,0.8-0.2,1.1-0.4c0.3-0.2,0.6-0.4,0.8-0.8
					c0.1-0.2,0.2-0.5,0.3-0.8c0.1-0.3,0.1-0.6,0.1-0.8c0-0.7-0.1-1.2-0.4-1.6c-0.3-0.4-0.6-0.7-1.1-0.8c-0.4-0.2-0.9-0.3-1.5-0.3
					c-0.5,0-1.1,0-1.6,0h-1.4V304z"/>
				<path class="st0" d="M227.7,294.6h4.9l8.6,21.8h-4.8l-1.9-5h-8.9l-1.9,5h-4.5L227.7,294.6z M230.1,299L230.1,299l-3.2,9h6.4
					L230.1,299z"/>
				<path class="st0" d="M244.1,294.6h4.4v8.8h8.8v-8.8h4.4v21.8h-4.4v-9.6h-8.8v9.6h-4.4V294.6z"/>
				<path class="st0" d="M266.6,294.6h7l5.2,16.6h0.1l5.2-16.6h7v21.8h-4.2v-18h-0.1l-5.9,18h-4.2l-5.9-18l-0.1,0.1v18h-4.2V294.6z"
					/>
				<path class="st0" d="M302.4,294.6h4.9l8.6,21.8h-4.8l-1.9-5h-8.9l-1.9,5h-4.5L302.4,294.6z M304.8,299L304.8,299l-3.2,9h6.4
					L304.8,299z"/>
				<path class="st0" d="M318.5,294.6h5.4l8.3,16.3h0.1v-16.3h4.2v21.8h-5.3l-8.4-16.3h-0.1v16.3h-4.2V294.6z"/>
				<path class="st0" d="M350,294.6h7.6c1,0,1.9,0.1,2.7,0.3c0.9,0.2,1.6,0.5,2.2,0.9c0.6,0.4,1.1,1,1.5,1.7
					c0.4,0.7,0.6,1.6,0.6,2.7c0,0.7-0.1,1.3-0.3,1.8c-0.2,0.6-0.5,1-0.9,1.4c-0.4,0.4-0.8,0.8-1.4,1c-0.5,0.3-1.1,0.5-1.8,0.6v0.1
					c0.7,0.1,1.3,0.2,2,0.5c0.6,0.2,1.1,0.6,1.6,1c0.5,0.4,0.8,0.9,1.1,1.5s0.4,1.3,0.4,2c0,1.2-0.2,2.1-0.6,2.9
					c-0.4,0.8-1,1.5-1.7,2c-0.7,0.5-1.5,0.9-2.4,1.1s-1.9,0.3-3,0.3H350V294.6z M354.4,303.5h1.9c0.4,0,0.9,0,1.4-0.1
					c0.5-0.1,0.9-0.2,1.3-0.4c0.4-0.2,0.7-0.5,1-0.8s0.4-0.8,0.4-1.3c0-0.7-0.1-1.2-0.4-1.6c-0.2-0.4-0.6-0.6-1-0.8
					c-0.4-0.2-0.8-0.3-1.4-0.3c-0.5,0-1,0-1.5,0h-1.7V303.5z M354.4,313h2.1c0.5,0,1,0,1.6-0.1c0.5-0.1,1-0.2,1.5-0.4
					c0.4-0.2,0.8-0.5,1.1-0.9s0.4-0.9,0.4-1.5c0-0.6-0.1-1.1-0.3-1.6c-0.2-0.5-0.6-0.8-1.1-1.1c-0.2-0.1-0.5-0.2-0.7-0.3
					c-0.2-0.1-0.5-0.2-0.7-0.2c-0.3,0-0.5,0-0.8-0.1c-0.3,0-0.6,0-0.8,0h-2.1V313z"/>
				<path class="st0" d="M368.8,294.6h4.4v21.8h-4.4V294.6z"/>
				<path class="st0" d="M377.6,294.6h5.4l8.3,16.3h0.1v-16.3h4.2v21.8h-5.3l-8.4-16.3h-0.1v16.3h-4.2V294.6z"/>
				<path class="st0" d="M409.1,294.6h12.1v3.5h-7.8v5.4h7.4v3.4h-7.4v9.6h-4.4V294.6z"/>
				<path class="st0" d="M430,294.6h4.9l8.6,21.8h-4.8l-1.9-5H428l-1.9,5h-4.5L430,294.6z M432.5,299L432.5,299l-3.2,9h6.4
					L432.5,299z"/>
				<path class="st0" d="M446,294.6h4.4v21.8H446V294.6z"/>
				<path class="st0" d="M466.8,298.6c-0.7-0.3-1.4-0.5-2.2-0.7s-1.5-0.2-2.3-0.2c-0.5,0-0.9,0.1-1.4,0.2c-0.4,0.1-0.8,0.3-1.1,0.6
					c-0.3,0.2-0.5,0.6-0.7,0.9c-0.2,0.4-0.3,0.8-0.3,1.4c0,0.4,0.1,0.7,0.3,1c0.2,0.3,0.5,0.5,0.9,0.8c0.4,0.2,0.8,0.4,1.2,0.6
					c0.5,0.2,1,0.4,1.5,0.6c0.5,0.2,1,0.4,1.6,0.7c0.5,0.2,1,0.5,1.5,0.8c0.5,0.3,0.9,0.7,1.3,1.1s0.7,0.9,0.9,1.5
					c0.1,0.4,0.2,0.8,0.3,1.2c0.1,0.4,0.1,0.8,0.1,1.2c0,1.2-0.2,2.2-0.7,3.1c-0.4,0.8-1,1.5-1.8,2c-0.8,0.5-1.6,0.9-2.6,1.1
					c-1,0.2-2,0.4-3.1,0.4c-1,0-1.9-0.1-2.8-0.3c-0.9-0.2-1.9-0.4-2.8-0.6l0.4-3.9c0.8,0.4,1.5,0.8,2.4,1c0.8,0.2,1.7,0.4,2.6,0.4
					c0.4,0,0.9-0.1,1.3-0.2c0.5-0.1,0.9-0.3,1.3-0.5c0.4-0.2,0.7-0.5,0.9-0.9c0.2-0.4,0.4-0.8,0.4-1.3c0-0.2,0-0.5-0.1-0.7
					c-0.1-0.2-0.1-0.4-0.3-0.6c-0.1-0.2-0.3-0.3-0.5-0.5c-0.2-0.2-0.4-0.3-0.6-0.4c-0.5-0.3-1.1-0.6-1.6-0.8
					c-0.6-0.2-1.1-0.4-1.7-0.7c-0.3-0.1-0.6-0.2-0.9-0.4c-0.3-0.1-0.6-0.3-0.8-0.5c-0.5-0.3-1-0.6-1.3-1s-0.7-0.7-1-1.1
					c-0.3-0.4-0.5-0.8-0.6-1.3s-0.2-1-0.2-1.7c0-0.5,0-1,0.1-1.5c0.1-0.5,0.2-1,0.4-1.4c0.2-0.4,0.4-0.9,0.7-1.3
					c0.3-0.4,0.7-0.7,1.1-1c0.8-0.5,1.6-0.9,2.5-1.1c0.9-0.2,1.8-0.3,2.7-0.3c0.9,0,1.8,0.1,2.6,0.2c0.9,0.1,1.7,0.3,2.6,0.6
					L466.8,298.6z"/>
				<path class="st0" d="M478.7,294.6h4.9l8.6,21.8h-4.8l-1.9-5h-8.9l-1.9,5h-4.5L478.7,294.6z M481.1,299L481.1,299l-3.2,9h6.4
					L481.1,299z"/>
				<path class="st0" d="M495.1,294.6h4.4V313h8.5v3.4h-12.9V294.6z"/>
				<path class="st0" d="M519.2,294.6h4.4v12.6c0,0.8,0.1,1.5,0.2,2.3c0.1,0.7,0.4,1.4,0.7,2c0.3,0.6,0.8,1,1.4,1.4
					c0.6,0.4,1.3,0.5,2.2,0.5c0.9,0,1.7-0.2,2.3-0.5c0.6-0.3,1.1-0.8,1.4-1.4c0.3-0.6,0.6-1.2,0.7-2c0.1-0.7,0.2-1.5,0.2-2.3v-12.6
					h4.4v14c0,1.5-0.2,2.7-0.6,3.8s-1,1.9-1.8,2.6c-0.8,0.7-1.7,1.2-2.8,1.5c-1.1,0.3-2.4,0.5-3.8,0.5c-1.4,0-2.6-0.2-3.7-0.5
					c-1.1-0.3-2-0.8-2.8-1.5c-0.8-0.7-1.3-1.5-1.8-2.6s-0.6-2.3-0.6-3.8V294.6z"/>
				<path class="st0" d="M541.8,294.6h5.4l8.3,16.3h0.1v-16.3h4.2v21.8h-5.3l-8.4-16.3H546v16.3h-4.2V294.6z"/>
				<path class="st0" d="M564.2,294.6h4.4v21.8h-4.4V294.6z"/>
				<path class="st0" d="M571,294.6h4.7l5.6,17.2h0.1l5.5-17.2h4.4l-7.4,21.8h-5.4L571,294.6z"/>
				<path class="st0" d="M594.1,294.6H607v3.5h-8.5v5.4h7.8v3.4h-7.8v6.1h8.6v3.4h-13V294.6z"/>
				<path class="st0" d="M611.1,294.6h6c0.7,0,1.4,0,2.2,0c0.7,0,1.4,0.1,2.1,0.2c0.7,0.1,1.3,0.3,1.9,0.6c0.6,0.2,1.1,0.6,1.5,1
					s0.8,1,1,1.6c0.2,0.7,0.4,1.5,0.4,2.4c0,0.7-0.1,1.3-0.3,1.9c-0.2,0.6-0.5,1.1-0.9,1.5c-0.4,0.4-0.9,0.8-1.4,1.1
					s-1.2,0.5-1.8,0.6v0.1c0.3,0,0.6,0.1,0.8,0.3c0.2,0.1,0.5,0.3,0.6,0.5c0.2,0.2,0.4,0.4,0.5,0.7c0.1,0.3,0.3,0.5,0.4,0.8l3.5,8.5
					h-4.9l-2.6-6.8c-0.2-0.4-0.3-0.8-0.5-1.1c-0.2-0.3-0.3-0.5-0.6-0.7c-0.2-0.2-0.5-0.3-0.8-0.4c-0.3-0.1-0.7-0.1-1.2-0.1h-1.4v9.1
					h-4.4V294.6z M615.5,304h1.4c0.3,0,0.7,0,1.1,0c0.4,0,0.8-0.1,1.2-0.2c0.4-0.1,0.8-0.2,1.1-0.4c0.3-0.2,0.6-0.4,0.8-0.8
					c0.1-0.2,0.2-0.5,0.3-0.8c0.1-0.3,0.1-0.6,0.1-0.8c0-0.7-0.1-1.2-0.4-1.6c-0.3-0.4-0.6-0.7-1.1-0.8s-0.9-0.3-1.5-0.3
					c-0.6,0-1.1,0-1.6,0h-1.4V304z"/>
				<path class="st0" d="M642.4,298.6c-0.7-0.3-1.4-0.5-2.2-0.7s-1.5-0.2-2.3-0.2c-0.5,0-0.9,0.1-1.4,0.2c-0.4,0.1-0.8,0.3-1.1,0.6
					c-0.3,0.2-0.5,0.6-0.7,0.9c-0.2,0.4-0.3,0.8-0.3,1.4c0,0.4,0.1,0.7,0.3,1c0.2,0.3,0.5,0.5,0.9,0.8c0.4,0.2,0.8,0.4,1.2,0.6
					c0.5,0.2,1,0.4,1.5,0.6c0.5,0.2,1,0.4,1.6,0.7c0.5,0.2,1,0.5,1.5,0.8s0.9,0.7,1.3,1.1s0.7,0.9,0.9,1.5c0.1,0.4,0.2,0.8,0.3,1.2
					c0.1,0.4,0.1,0.8,0.1,1.2c0,1.2-0.2,2.2-0.7,3.1c-0.4,0.8-1,1.5-1.8,2c-0.8,0.5-1.6,0.9-2.6,1.1c-1,0.2-2,0.4-3.1,0.4
					c-1,0-1.9-0.1-2.8-0.3c-0.9-0.2-1.9-0.4-2.8-0.6l0.4-3.9c0.8,0.4,1.5,0.8,2.4,1s1.7,0.4,2.6,0.4c0.4,0,0.9-0.1,1.3-0.2
					c0.5-0.1,0.9-0.3,1.3-0.5c0.4-0.2,0.7-0.5,0.9-0.9c0.2-0.4,0.4-0.8,0.4-1.3c0-0.2,0-0.5-0.1-0.7c-0.1-0.2-0.1-0.4-0.3-0.6
					c-0.1-0.2-0.3-0.3-0.5-0.5c-0.2-0.2-0.4-0.3-0.6-0.4c-0.5-0.3-1.1-0.6-1.6-0.8c-0.6-0.2-1.1-0.4-1.7-0.7
					c-0.3-0.1-0.6-0.2-0.9-0.4c-0.3-0.1-0.6-0.3-0.8-0.5c-0.5-0.3-1-0.6-1.3-1s-0.7-0.7-1-1.1c-0.3-0.4-0.5-0.8-0.6-1.3
					s-0.2-1-0.2-1.7c0-0.5,0-1,0.1-1.5c0.1-0.5,0.2-1,0.4-1.4c0.2-0.4,0.4-0.9,0.7-1.3c0.3-0.4,0.7-0.7,1.1-1
					c0.8-0.5,1.6-0.9,2.5-1.1c0.9-0.2,1.8-0.3,2.7-0.3c0.9,0,1.8,0.1,2.6,0.2c0.9,0.1,1.7,0.3,2.6,0.6L642.4,298.6z"/>
				<path class="st0" d="M647.6,294.6h4.4v21.8h-4.4V294.6z"/>
				<path class="st0" d="M660.7,298.1h-6.3v-3.5h16.9v3.5h-6.2v18.4h-4.4V298.1z"/>
				<path class="st0" d="M679.9,307.8l-8-13.2h5.1l5.2,9.2l5.3-9.2h4.6l-7.8,13.2v8.6h-4.4V307.8z"/>
			</g>
			<g>
				<rect x="522.7" y="235.4" class="st0" width="7.9" height="29.7"/>
				<path class="st0" d="M484.9,246.2c-0.9-1-1.9-1.8-3.2-2.3c-1.3-0.5-3-0.8-5.2-0.8h-10.8v17l-5.1,0c-3.8,0-7.7-0.3-7.7-7v-17.7
					h-7.9v16.1c0,11.2,4.4,13.6,15.3,13.6h16.2c1.3,0,2.7-0.2,4.3-0.6c1.2-0.3,2.3-0.9,3.3-1.8c1-0.9,1.8-2,2.4-3.3
					c0.6-1.3,0.9-3.1,0.9-5.5c0-1.5-0.2-2.9-0.6-4.3C486.3,248.4,485.7,247.2,484.9,246.2z M480.2,257.9c-1,2.1-3.9,2.1-5.8,2.1
					h-2.5v-12h2.5c1.9,0,4.3,0.4,5.1,1.3c0.8,0.9,1.2,2.5,1.2,4.8C480.7,255.9,480.5,257.1,480.2,257.9z"/>
				<path class="st0" d="M421.8,238.6l10.3,13.1l-5.4,7.7c-2.5-3.8-1.4-8.9,0.4-11.8l-4.6-5.9c-1.1,1.4-2.3,6.8-2.5,8.3
					c-5,1.1-12.2,8.5-13.2,15h6.7c0-4.1,3.8-8.2,6.7-8.2c0,3.6,1,5.6,2.4,8.2l8.1,0l9.8-13.5l-10.1-13L421.8,238.6z"/>
				<path class="st0" d="M510.4,253.1c0,4.7-1.9,6.2-4.3,6.7v-15.3h-7.9v15.5h-6.5v5h11.4c0,0,0,0,0.1,0h3V265
					c8.7-0.5,12.2-3.4,12.2-13.5v-16.1h-7.9V253.1z"/>
				<rect x="679" y="267.8" class="st0" width="5.8" height="5.8"/>
				<rect x="551.2" y="235.3" class="st0" width="5.8" height="5.8"/>
				<rect x="558.9" y="235.3" class="st0" width="5.8" height="5.8"/>
				<path class="st0" d="M630.6,246.2c-0.9-1-1.9-1.8-3.2-2.3c-1.3-0.5-3-0.8-5.2-0.8h-10.8v17h-21l8.2-6.3v-7.9l-12.9,10.1
					c-2.4-2.6-5.2-4.6-8.1-6.4c4.1-2.1,8.4-2,12.5,0.5l9.3-7.4l-1.1-0.4l-3.6,2.7c-7.3-2.8-14.2-3.5-21.8,0.8l0.1,0.1v7.9
					c2.9,1.7,5.8,3.6,8.1,6.3h-16.3v-17h-11.8c-2.3,0-4.2,0.3-5.6,0.8c-1.4,0.5-2.6,1.3-3.5,2.3c-0.9,1-1.6,2.2-2,3.5
					c-0.4,1.3-0.6,2.8-0.6,4.3c0,2.4,0.3,4.2,0.9,5.5c0.6,1.3,1.5,2.4,2.6,3.3c2.2,1.7,5.5,2.4,8.3,2.4h69.3c2.7,0,5.6-0.6,7.6-2.4
					c2.7-2.3,3.2-5.3,3.2-8.7c0-1.5-0.2-2.9-0.6-4.3C632,248.4,631.4,247.2,630.6,246.2z M557.9,260.1h-2.7c-2.1,0-5.3,0-6.4-2.1
					c-0.4-0.8-0.6-2.1-0.6-3.8c0-2.3,0.4-3.9,1.3-4.8c0.9-0.9,3.5-1.3,5.6-1.3h2.8V260.1z M625.9,257.9c-1,2.1-3.9,2.1-5.8,2.1h-2.5
					v-12h2.5c1.9,0,4.3,0.4,5.1,1.3c0.8,0.9,1.2,2.5,1.2,4.8C626.4,255.9,626.2,257.1,625.9,257.9z"/>
				<path class="st0" d="M675.7,244.2h-16.4v6h16.1c3.8,0,7.7,2.9,7.7,7v2.9l-26.7,0c-3.8,0-7.7-0.3-7.7-7v-17.7h-7.9v16.1
					c0,11.2,4.4,13.6,15.3,13.6h16.4H691v-7.3C691,251.5,686.7,244.2,675.7,244.2z"/>
				<rect x="202.8" y="235.3" class="st0" width="5.8" height="5.8"/>
				<rect x="319.7" y="235.4" class="st0" width="7.9" height="29.7"/>
				<path class="st0" d="M307.4,253.1c0,5.4-2.5,6.6-5.4,6.9v-5.2h-7.9v7.9c0,6.7-3.9,7-7.7,7h-2.7v5h3c9.5,0,14-1.8,15-9.6
					c9.7-0.3,13.6-2.9,13.6-13.5v-16.1h-7.9V253.1z"/>
				<path class="st0" d="M284.1,257.8c0-6.3-4.4-13.6-15.3-13.6h-16.4v6h16.1c3.8,0,7.7,2.9,7.7,7v2.9l-29.2,0
					c0.1-0.2,0.3-0.4,0.4-0.6c0.6-1.3,0.9-3.1,0.9-5.5c0-1.5-0.2-2.9-0.6-4.3c-0.4-1.3-1-2.5-1.9-3.5c-0.9-1-1.9-1.8-3.2-2.3
					c-1.3-0.5-3-0.8-5.2-0.8h-10.8v17l-5.1,0c-0.3,0-0.6,0-0.9,0c0,0,0-0.1,0-0.1v-6c0-0.3,0-0.5,0-0.8v-8.6h0h-7.9h-0.4v17.1
					c0,6.6-3.6,7.3-7.3,7.3c-3.7-0.1-7.3-0.7-7.3-7.3v-11.4l-8.3,0v9.7c0,11.5,4.3,14.1,15.1,14.3v0h0.1c0,0,0.1,0,0.1,0v0h0.7
					c-0.1,0-0.3,0-0.4,0c9.3-0.1,13.9-1.8,15.2-9.1c0.3,0,0.6,0,0.9,0h5.7h10.5h28.2h18.6V257.8z M241.1,257.9
					c-1,2.1-3.9,2.1-5.8,2.1h-2.5v-12h2.5c1.9,0,4.3,0.4,5.1,1.3c0.8,0.9,1.2,2.5,1.2,4.8C241.6,255.9,241.5,257.1,241.1,257.9z"/>
				<path class="st0" d="M387.1,243.4c-1.3,0.5-2.4,1.3-3.2,2.3c-0.9,1-1.5,2.2-1.9,3.5c-0.4,1.3-0.6,2.8-0.6,4.3
					c0,2.4,0.3,4.2,0.9,5.5c0.1,0.2,0.3,0.5,0.4,0.7h-13.4v-11h-7.9v11h-10.2c0.3-0.5,0.5-1.1,0.7-1.7c0.4-1.3,0.6-2.8,0.6-4.3
					c0-2.4-0.3-4.2-0.9-5.5c-0.6-1.3-1.4-2.4-2.4-3.3c-1-0.9-2.1-1.5-3.3-1.8c-1.6-0.4-3-0.6-4.3-0.6l-5.2-0.1v5.1h3.1
					c1.9,0,4.9,0,5.8,2.1c0.4,0.8,0.5,2.1,0.5,3.8c0,2.3-0.4,3.9-1.2,4.8c-0.8,0.9-3.2,1.3-5.1,1.3h-3.2v5v0.4h40.3h20.1v-0.4v-4.6
					v-0.4v-0.1h-2.4c-1.9,0-4.9,0-5.8-2.1c-0.4-0.8-0.5-2.1-0.5-3.8c0-2.3,0.4-3.9,1.2-4.8c0.8-0.9,3.2-1.3,5.1-1.3h2.4v-5h-4.5
					C390.1,242.6,388.4,242.9,387.1,243.4z"/>
				<rect x="356.1" y="267.8" class="st0" width="5.8" height="5.8"/>
				<rect x="106.8" y="235.3" class="st0" width="5.8" height="5.8"/>
				<path class="st0" d="M16.7,274.2h0.1c0.4,0,0.7,0,1,0C17.4,274.2,17,274.2,16.7,274.2L16.7,274.2z"/>
				<path class="st0" d="M18.2,274.2h0.7C18.6,274.2,18.4,274.2,18.2,274.2L18.2,274.2z"/>
				<rect x="87.2" y="267.8" class="st0" width="5.8" height="5.8"/>
				<rect x="79.1" y="267.8" class="st0" width="5.8" height="5.8"/>
				<path class="st0" d="M120.6,246.2c-0.9-1-1.9-1.8-3.2-2.3c-1.3-0.5-3-0.8-5.2-0.8h-10.8v17l-3.7,0h-2.2c0,0-0.1-0.3-0.1-7v-8.6
					h-7.9v7c0,3.8-0.3,6.6-0.2,8.6h-8.1v-2.3c0-6.3-4.4-13.6-15.3-13.6H48.4h-1h-2.4l-4.6-4.1l-0.9,1l-0.1,0.1l10.1,9l0,0l0,0h13.9
					c3.8,0,7.7,2.9,7.7,7v2.9l-22.8,0v-8.9l-6.4-5.8v14.7l-11.9,0c0-0.1,0-0.1,0-0.2v-24.6h-8.3v26.3c0,6.2-3.2,7.2-6.7,7.3
					c-3.5-0.1-6.7-1.1-6.7-7.3v-11.4l-8.3,0v9.7c0,11,4,13.9,13.9,14.2c0.4,0,0.8,0,1.2,0c0.1,0,0.2,0,0.3,0v0
					c8.7-0.2,13-2.1,14.3-9.1h22.6h8.4h18.6h16.4v0v0h2.2v0h14.5c1.3,0,2.7-0.2,4.3-0.6c1.2-0.3,2.3-0.9,3.3-1.8
					c1-0.9,1.8-2,2.4-3.3c0.6-1.3,0.9-3.1,0.9-5.5c0-1.5-0.2-2.9-0.6-4.3C122.1,248.4,121.4,247.2,120.6,246.2z M115.9,257.9
					c-1,2.1-3.9,2.1-5.8,2.1h-2.5v-12h2.5c1.9,0,4.3,0.4,5.1,1.3c0.8,0.9,1.2,2.5,1.2,4.8C116.4,255.9,116.3,257.1,115.9,257.9z"/>
				<path class="st0" d="M174.2,253.1c0,5.4-2.5,6.6-5.4,6.9h-7c0,0,0-0.1,0-0.1v-6c0-0.3,0-0.5,0-0.8v-8.6h0h-7.9h-0.4v17.1
					c0,6.6-3.6,7.3-7.3,7.3c-3.7-0.1-7.3-0.7-7.3-7.3v-11.4l-8.3,0v9.7c0,11.5,4.3,14.1,15.1,14.3c0.1,0,0.2,0,0.3,0
					c0.1,0,0.2,0,0.3,0c9.3-0.1,13.9-1.8,15.2-9.1h7.4v0c9.5-0.3,13.3-3,13.3-13.5v-7h-7.9V253.1z"/>
				<rect x="144" y="235.3" class="st0" width="5.8" height="5.8"/>
				<rect x="167.6" y="268.1" class="st0" width="5.8" height="5.8"/>
				<path class="st0" d="M502.2,271.7c-0.1-0.2-0.1-0.6-0.1-1c0-0.6,0.1-1.1,0.3-1.3c0.2-0.2,0.9-0.3,1.4-0.3h0.6v-1.3h-1.2
					c-0.6,0-1,0.1-1.4,0.2c-0.3,0.1-0.6,0.4-0.9,0.6c-0.2,0.3-0.4,0.6-0.5,0.9c-0.1,0.4-0.2,0.7-0.2,1.1c0,0.6,0.1,1.1,0.2,1.5
					c0,0.1,0.1,0.1,0.1,0.2h0h-1.2h-0.3v1.3v0.1h4h2v-0.1v-1.2v-0.1h-1.4C503.2,272.3,502.5,272.3,502.2,271.7z"/>
			</g>
		</g>
		<path class="st0" d="M287.3,57.9L355,39.8c0.4-0.1,0.8,0,1.1,0.3l66.9,66.9l14.8-14.8l-75.4-75.4c-0.3-0.3-0.7-0.4-1.1-0.3
			l-93,24.9L246.7,47c-0.9,0.2-1.2,1.3-0.5,1.9l15.7,15.7l14.8,14.8l-23.4,6.3l-21.5,5.8c-0.9,0.2-1.2,1.3-0.5,1.9l15.7,15.7
			l86.8,86.8l14.8-14.8l-76.8-76.8c-0.6-0.6-0.3-1.7,0.5-1.9l21.5-5.8l69.6,69.6l14.8-14.8l-61.1-61.1l22.9-6.1
			c0.4-0.1,0.8,0,1.1,0.3l52,52l14.8-14.8l-60.7-60.5c-0.3-0.3-0.7-0.4-1.1-0.3l-46.2,12.4l-13.4-13.4
			C286.1,59.2,286.4,58.1,287.3,57.9z"/>
		<g>
			<polygon class="st1" points="397.2,81.2 380.1,64.1 375.9,79.7 393,96.8 			"/>
			<path class="st1" d="M460.3,0.2l-61.4,43l15.1,15.1c0,0,11.2-7.8,11.2-7.8c0.3-0.2,0.8-0.3,1.2-0.1c0.5,0.2,0.7,0.8,0.5,1.3
				l-4.1,15.5l17.2,17.2l14.6-54.4l7.6-28.5C462.3,0.4,461.2-0.4,460.3,0.2z"/>
			<polygon class="st1" points="367.6,110.8 363.3,126.6 380.5,143.8 384.7,127.9 			"/>
		</g>
	</g>
</g>
<g id="Guide">
</g>
<g id="Text_layer">
</g>
</svg>
